<svg xmlns="http://www.w3.org/2000/svg" version="1.1" xmlns:xlink="http://www.w3.org/1999/xlink" xmlns:svgjs="http://svgjs.com/svgjs" width="512" height="512" x="0" y="0" viewBox="0 0 682.667 682.667" style="enable-background:new 0 0 512 512" xml:space="preserve" class=""><g><defs><clipPath id="a" clipPathUnits="userSpaceOnUse"><path d="M0 512h512V0H0Z" fill="#059dc0" data-original="#000000"></path></clipPath></defs><g clip-path="url(#a)" transform="matrix(1.33333 0 0 -1.33333 0 682.667)"><path d="M0 0c-12.646-16.418-20.166-36.986-20.166-59.313 0-53.728 43.556-97.283 97.284-97.283 53.729 0 97.284 43.555 97.284 97.283 0 53.729-43.555 97.285-97.284 97.285-20.546 0-39.605-6.37-55.309-17.243" style="stroke-linecap: round; stroke-linejoin: round; stroke-miterlimit: 10; stroke-dasharray: none; stroke-opacity: 1;" transform="translate(178.882 447.345)" fill="none" stroke="#059DC0" stroke-width="15px" stroke-linecap="round" stroke-linejoin="round" stroke-miterlimit="10" stroke-dasharray="none" stroke-opacity="" data-original="#000000"></path><path d="M0 0c-10.808 27.411-30.936 44.318-46.819 52.957 8.811 6.354 14.551 16.699 14.551 28.392 0 19.323-15.665 34.988-34.988 34.988-19.324 0-34.989-15.665-34.989-34.988 0-11.693 5.741-22.038 14.552-28.392-15.884-8.639-36.012-25.547-46.82-52.957" style="stroke-linecap: round; stroke-linejoin: round; stroke-miterlimit: 10; stroke-dasharray: none; stroke-opacity: 1;" transform="translate(323.256 317.745)" fill="none" stroke="#059DC0" stroke-width="15px" stroke-linecap="round" stroke-linejoin="round" stroke-miterlimit="10" stroke-dasharray="none" stroke-opacity="" data-original="#000000"></path><path d="M0 0c-9.5 3.097-19.643 4.771-30.176 4.771-53.729 0-97.284-43.555-97.284-97.284 0-53.728 43.555-97.284 97.284-97.284 53.728 0 97.283 43.556 97.283 97.284 0 32.661-16.095 61.563-40.786 79.206" style="stroke-linecap: round; stroke-linejoin: round; stroke-miterlimit: 10; stroke-dasharray: none; stroke-opacity: 1;" transform="translate(436.893 216.48)" fill="none" stroke="#059DC0" stroke-width="15px" stroke-linecap="round" stroke-linejoin="round" stroke-miterlimit="10" stroke-dasharray="none" stroke-opacity="" data-original="#000000"></path><path d="M0 0c-10.808 27.41-30.936 44.318-46.819 52.956 8.81 6.355 14.551 16.699 14.551 28.392 0 19.324-15.665 34.989-34.988 34.989-19.324 0-34.99-15.665-34.99-34.989 0-11.693 5.742-22.037 14.552-28.392C-103.577 44.318-123.705 27.41-134.513 0" style="stroke-linecap: round; stroke-linejoin: round; stroke-miterlimit: 10; stroke-dasharray: none; stroke-opacity: 1;" transform="translate(473.973 53.68)" fill="none" stroke="#059DC0" stroke-width="15px" stroke-linecap="round" stroke-linejoin="round" stroke-miterlimit="10" stroke-dasharray="none" stroke-opacity="" data-original="#000000"></path><path d="M0 0c49.545 4.507 88.358 46.16 88.358 96.88 0 53.728-43.555 97.284-97.283 97.284-53.729 0-97.284-43.556-97.284-97.284 0-46.484 32.601-85.353 76.186-94.99" style="stroke-linecap: round; stroke-linejoin: round; stroke-miterlimit: 10; stroke-dasharray: none; stroke-opacity: 1;" transform="translate(114.007 26.885)" fill="none" stroke="#059DC0" stroke-width="15px" stroke-linecap="round" stroke-linejoin="round" stroke-miterlimit="10" stroke-dasharray="none" stroke-opacity="" data-original="#000000"></path><path d="M0 0c-10.808 27.41-30.936 44.318-46.819 52.956 8.81 6.355 14.551 16.699 14.551 28.392 0 19.324-15.665 34.989-34.989 34.989-19.324 0-34.989-15.665-34.989-34.989 0-11.693 5.742-22.037 14.552-28.392C-103.577 44.318-123.706 27.41-134.513 0" style="stroke-linecap: round; stroke-linejoin: round; stroke-miterlimit: 10; stroke-dasharray: none; stroke-opacity: 1;" transform="translate(172.54 53.68)" fill="none" stroke="#059DC0" stroke-width="15px" stroke-linecap="round" stroke-linejoin="round" stroke-miterlimit="10" stroke-dasharray="none" stroke-opacity="" data-original="#000000"></path><path d="m0 0-68.974 44.521v69.499" style="stroke-linecap: round; stroke-linejoin: round; stroke-miterlimit: 10; stroke-dasharray: none; stroke-opacity: 1;" transform="translate(324.974 176.73)" fill="none" stroke="#059DC0" stroke-width="15px" stroke-linecap="round" stroke-linejoin="round" stroke-miterlimit="10" stroke-dasharray="none" stroke-opacity="" data-original="#000000"></path><path d="m0 0 68.974 44.521" style="stroke-linecap: round; stroke-linejoin: round; stroke-miterlimit: 10; stroke-dasharray: none; stroke-opacity: 1;" transform="translate(187.026 176.73)" fill="none" stroke="#059DC0" stroke-width="15px" stroke-linecap="round" stroke-linejoin="round" stroke-miterlimit="10" stroke-dasharray="none" stroke-opacity="" data-original="#000000"></path></g></g></svg>