<svg xmlns="http://www.w3.org/2000/svg" version="1.1" xmlns:xlink="http://www.w3.org/1999/xlink" xmlns:svgjs="http://svgjs.com/svgjs" width="512" height="512" x="0" y="0" viewBox="0 0 24 24" style="enable-background:new 0 0 512 512" xml:space="preserve"><g><path d="m23.707 22.293-6.825-6.826A9.45 9.45 0 0 0 19 9.5C19 4.262 14.738 0 9.5 0S0 4.262 0 9.5 4.262 19 9.5 19a9.45 9.45 0 0 0 5.968-2.119l6.825 6.826a.997.997 0 0 0 1.414 0 .999.999 0 0 0 0-1.414zM2 9.5C2 5.364 5.364 2 9.5 2S17 5.364 17 9.5 13.636 17 9.5 17 2 13.636 2 9.5z" fill="#24B3A8" data-original="#000000"></path><circle cx="9.5" cy="7" r="2" fill="#24B3A8" data-original="#000000"></circle><path d="M10.75 10h-2.5a2.752 2.752 0 0 0-2.75 2.75v.5c0 .414.336.75.75.75h6.5a.75.75 0 0 0 .75-.75v-.5A2.752 2.752 0 0 0 10.75 10z" fill="#24B3A8" data-original="#000000"></path></g></svg>