<svg xmlns="http://www.w3.org/2000/svg" version="1.1" xmlns:xlink="http://www.w3.org/1999/xlink" xmlns:svgjs="http://svgjs.com/svgjs" width="512" height="512" x="0" y="0" viewBox="0 0 512 512" style="enable-background:new 0 0 512 512" xml:space="preserve"><g><path fill="#F7E300" fill-rule="evenodd" d="M502 256c0 135.863-110.137 246-246 246S10 391.863 10 256 120.137 10 256 10s246 110.137 246 246zm0 0" data-original="#f7e300"></path><path fill="#FFFFFF" fill-rule="evenodd" d="M138.14 209.719c-25.074-7.547-35.331 27.652-11.05 36.695l25.055 9.332c0 32.606-29.348 54.02-51.708 62.535-10.472 3.285-18.718 8.496-18.828 16.688-.125 9.39 10.555 21.8 42.813 24.539 2.445 43.312 44.223 19.34 64.637 26.492 25.394 8.898 44.535 30.55 66.941 30.55 22.402 0 41.547-21.652 66.938-30.55 20.414-7.152 62.195 16.82 64.64-26.492 32.258-2.738 42.934-15.149 42.809-24.54-.11-8.19-8.356-13.402-18.825-16.687-22.359-8.515-51.71-29.93-51.71-62.535l25.054-9.332c24.281-9.043 14.028-44.242-11.047-36.695l-13.898 4.187-1.899-36.39c0-56.371-45.695-102.067-102.062-102.067-56.371 0-102.066 45.696-102.066 102.067l-1.895 36.39zm0 0" data-original="#ffffff"></path><path d="M414.86 308.836c-19.005-7.309-40.805-23.488-44.47-46.344l18.008-6.707c18.168-6.765 23.22-24.539 18.75-37.828-4.355-12.953-18.18-23.23-36.171-17.812l-1.696.507-1.219-23.406C367.918 115.578 317.704 65.45 256 65.45s-111.918 50.13-112.063 111.797l-1.218 23.41-1.696-.511c-17.988-5.415-31.816 4.863-36.171 17.812-4.47 13.29.582 31.063 18.75 37.828l18.011 6.707c-3.668 22.86-25.468 39.035-44.472 46.344-20.891 6.648-25.418 17.8-25.528 26-.18 13.523 11.434 28.902 43.844 33.7 1.688 8.683 5.238 15.273 10.762 20.007 11.222 9.629 26.582 8.145 40.133 6.836 7.41-.719 15.07-1.457 19.402.059 9.441 3.308 18.34 8.832 26.941 14.171 13.418 8.329 27.293 16.942 43.305 16.942s29.887-8.613 43.305-16.942c8.605-5.34 17.5-10.863 26.941-14.171 4.332-1.516 11.996-.778 19.402-.06 13.555 1.31 28.914 2.794 40.133-6.835 5.524-4.734 9.078-11.324 10.762-20.008 32.41-4.797 44.023-20.176 43.848-33.695-.114-8.207-4.637-19.356-25.532-26.004zm-28.13 40.707a10.001 10.001 0 0 0-9.136 9.402c-.406 7.16-2.031 12.012-4.832 14.418-4.758 4.078-15.145 3.074-25.192 2.106-9.562-.926-19.453-1.88-27.937 1.093-11.516 4.032-21.36 10.145-30.88 16.051-12.042 7.48-22.444 13.938-32.753 13.938s-20.71-6.457-32.758-13.938c-9.52-5.906-19.363-12.02-30.875-16.05-4.32-1.516-9.004-2.012-13.82-2.012-4.649 0-9.426.46-14.121.918-10.043.968-20.43 1.972-25.188-2.106-2.8-2.406-4.43-7.258-4.832-14.418a10.001 10.001 0 0 0-9.136-9.402c-25.551-2.172-33.711-10.668-33.66-14.441.023-1.727 3.73-4.743 11.82-7.282a9.69 9.69 0 0 0 .566-.195c26.824-10.215 58.149-35.168 58.149-71.879a9.994 9.994 0 0 0-6.508-9.371l-25.059-9.332c-7.246-2.7-8.176-8.535-6.773-12.711.78-2.316 3.457-7.445 11.453-5.035l13.898 4.183a9.999 9.999 0 0 0 8.637-1.394 10.008 10.008 0 0 0 4.23-7.66l1.899-36.39c.008-.173.012-.349.012-.52 0-50.766 41.3-92.067 92.066-92.067s92.063 41.301 92.063 92.067c0 .171.007.343.015.52l1.895 36.39a10.006 10.006 0 0 0 4.23 7.656 9.996 9.996 0 0 0 8.64 1.398l13.9-4.183c8-2.41 10.671 2.719 11.448 5.035 1.407 4.176.473 10.012-6.773 12.711l-25.055 9.328a10.002 10.002 0 0 0-6.508 9.371c0 36.715 31.325 61.668 58.149 71.883.187.07.375.137.562.195 8.09 2.54 11.797 5.551 11.82 7.282.051 3.777-8.109 12.273-33.656 14.441zm0 0" fill="#000000" data-original="#000000"></path><path d="M393.52 447.8C353.27 476.716 305.719 492 256 492 125.871 492 20 386.133 20 256c0-49.719 15.281-97.27 44.195-137.52 3.223-4.484 2.2-10.734-2.285-13.953-4.484-3.222-10.734-2.199-13.957 2.285C16.582 150.48 0 202.07 0 256c0 68.379 26.629 132.668 74.98 181.02C123.332 485.37 187.621 512 256 512c53.93 0 105.52-16.582 149.187-47.957 4.489-3.223 5.512-9.469 2.29-13.953-3.223-4.488-9.47-5.512-13.957-2.29zM437.02 74.98C388.668 26.63 324.379 0 256 0c-53.926 0-105.516 16.582-149.191 47.957-4.485 3.223-5.508 9.473-2.29 13.957 3.223 4.484 9.473 5.512 13.958 2.29C158.73 35.284 206.285 20 256 20c130.133 0 236 105.871 236 236 0 49.71-15.285 97.266-44.2 137.52-3.222 4.488-2.195 10.734 2.29 13.957a9.944 9.944 0 0 0 5.824 1.878c3.11 0 6.18-1.449 8.133-4.167C495.418 361.512 512 309.926 512 256c0-68.379-26.629-132.668-74.98-181.02zM82.047 92.055c2.562 0 5.125-.98 7.074-2.934 3.906-3.902 3.906-10.234 0-14.14-3.902-3.907-10.234-3.907-14.14 0l-.004.003c-3.907 3.907-3.903 10.235 0 14.141a9.968 9.968 0 0 0 7.07 2.93zM422.55 423.219l-.003.004c-3.715 4.086-3.41 10.41.676 14.125a9.948 9.948 0 0 0 6.722 2.597 9.978 9.978 0 0 0 7.407-3.273c3.714-4.086 3.414-10.41-.676-14.125-4.086-3.715-10.41-3.414-14.125.672zm0 0" fill="#000000" data-original="#000000"></path></g></svg>