<svg xmlns="http://www.w3.org/2000/svg" version="1.1" xmlns:xlink="http://www.w3.org/1999/xlink" xmlns:svgjs="http://svgjs.com/svgjs" width="512" height="512" x="0" y="0" viewBox="0 0 24 24" style="enable-background:new 0 0 512 512" xml:space="preserve" class=""><g><path fill="#24B3A8" d="M3 4.995C3 3.893 3.893 3 4.995 3h14.01C20.107 3 21 3.893 21 4.995v14.01A1.995 1.995 0 0 1 19.005 21H4.995A1.995 1.995 0 0 1 3 19.005zM6.357 18h11.49a6.992 6.992 0 0 0-5.745-3 6.992 6.992 0 0 0-5.745 3zM12 13a3.5 3.5 0 1 0 0-7 3.5 3.5 0 0 0 0 7z" data-original="#000000" class=""></path></g></svg>